ffmpeg version 4.3.1 Copyright (c) 2000-2020 the FFmpeg developers
  built with gcc 10.2.1 (GCC) 20200726
  configuration: --enable-gpl --enable-version3 --enable-sdl2 --enable-fontconfig --enable-gnutls --enable-iconv --enable-libass --enable-libdav1d --enable-libbluray --enable-libfreetype --enable-libmp3lame --enable-libopencore-amrnb --enable-libopencore-amrwb --enable-libopenjpeg --enable-libopus --enable-libshine --enable-libsnappy --enable-libsoxr --enable-libsrt --enable-libtheora --enable-libtwolame --enable-libvpx --enable-libwavpack --enable-libwebp --enable-libx264 --enable-libx265 --enable-libxml2 --enable-libzimg --enable-lzma --enable-zlib --enable-gmp --enable-libvidstab --enable-libvmaf --enable-libvorbis --enable-libvo-amrwbenc --enable-libmysofa --enable-libspeex --enable-libxvid --enable-libaom --enable-libgsm --disable-w32threads --enable-libmfx --enable-ffnvcodec --enable-cuda-llvm --enable-cuvid --enable-d3d11va --enable-nvenc --enable-nvdec --enable-dxva2 --enable-avisynth --enable-libopenmpt --enable-amf
  libavutil      56. 51.100 / 56. 51.100
  libavcodec     58. 91.100 / 58. 91.100
  libavformat    58. 45.100 / 58. 45.100
  libavdevice    58. 10.100 / 58. 10.100
  libavfilter     7. 85.100 /  7. 85.100
  libswscale      5.  7.100 /  5.  7.100
  libswresample   3.  7.100 /  3.  7.100
  libpostproc    55.  7.100 / 55.  7.100
[gdigrab @ 0000020fe552de40] Found window WoT Blitz, capturing 1536x1083x32 at (0,0)
[gdigrab @ 0000020fe552de40] Stream #0: not enough frames to estimate rate; consider increasing probesize
Input #0, gdigrab, from 'title=WoT Blitz':
  Duration: N/A, start: 1611467191.395218, bitrate: 1595366 kb/s
    Stream #0:0: Video: bmp, bgra, 1536x1083, 1595366 kb/s, 29.97 fps, 1000k tbr, 1000k tbn, 1000k tbc
Stream mapping:
  Stream #0:0 -> #0:0 (bmp (native) -> h264 (libx264))
Press [q] to stop, [?] for help
[libx264 @ 0000020fe5532340] using cpu capabilities: MMX2 SSE2Fast SSSE3 SSE4.2 AVX FMA3 BMI2 AVX2 AVX512
[libx264 @ 0000020fe5532340] profile High, level 4.0, 4:2:0, 8-bit
[libx264 @ 0000020fe5532340] 264 - core 161 - H.264/MPEG-4 AVC codec - Copyleft 2003-2020 - http://www.videolan.org/x264.html - options: cabac=1 ref=3 deblock=1:0:0 analyse=0x3:0x113 me=hex subme=7 psy=1 psy_rd=1.00:0.00 mixed_ref=1 me_range=16 chroma_me=1 trellis=1 8x8dct=1 cqm=0 deadzone=21,11 fast_pskip=1 chroma_qp_offset=-2 threads=6 lookahead_threads=1 sliced_threads=0 nr=0 decimate=1 interlaced=0 bluray_compat=0 constrained_intra=0 bframes=3 b_pyramid=2 b_adapt=1 b_bias=0 direct=1 weightb=1 open_gop=0 weightp=2 keyint=250 keyint_min=25 scenecut=40 intra_refresh=0 rc_lookahead=40 rc=crf mbtree=1 crf=23.0 qcomp=0.60 qpmin=0 qpmax=69 qpstep=4 ip_ratio=1.40 aq=1:1.00
Output #0, matroska, to 'replay.mkv':
  Metadata:
    encoder         : Lavf58.45.100
    Stream #0:0: Video: h264 (libx264) (H264 / 0x34363248), yuv420p, 1536x1082, q=-1--1, 29.97 fps, 1k tbn, 29.97 tbc
    Metadata:
      encoder         : Lavc58.91.100 libx264
    Side data:
      cpb: bitrate max/min/avg: 0/0/0 buffer size: 0 vbv_delay: N/A
frame=   15 fps=0.0 q=0.0 size=       1kB time=00:00:00.00 bitrate=N/A speed=   0x    frame=   31 fps= 30 q=0.0 size=       1kB time=00:00:00.00 bitrate=N/A speed=   0x    frame=   46 fps= 30 q=0.0 size=       1kB time=00:00:00.00 bitrate=N/A speed=   0x    frame=   59 fps= 29 q=29.0 size=       1kB time=00:00:00.23 bitrate=  20.5kbits/s speed=0.115x    frame=   73 fps= 28 q=29.0 size=       1kB time=00:00:00.73 bitrate=   6.5kbits/s speed=0.286x    frame=   88 fps= 29 q=29.0 size=       1kB time=00:00:01.23 bitrate=   3.9kbits/s speed=0.401x    frame=  103 fps= 29 q=29.0 size=       1kB time=00:00:01.80 bitrate=   2.7kbits/s speed=0.503x    frame=  107 fps= 26 q=29.0 size=       1kB time=00:00:01.93 bitrate=   2.5kbits/s speed=0.468x    frame=  110 fps= 23 q=29.0 size=       1kB time=00:00:02.03 bitrate=   2.4kbits/s speed=0.428x    frame=  113 fps= 21 q=29.0 size=       1kB time=00:00:02.13 bitrate=   2.3kbits/s speed=0.401x    frame=  116 fps= 19 q=29.0 size=       1kB time=00:00:02.23 bitrate=   2.1kbits/s speed=0.375x    frame=  118 fps= 17 q=29.0 size=       1kB time=00:00:02.30 bitrate=   2.1kbits/s speed=0.326x    frame=  120 fps= 16 q=29.0 size=       1kB time=00:00:02.40 bitrate=   2.0kbits/s speed=0.316x    frame=  122 fps= 15 q=29.0 size=       1kB time=00:00:02.47 bitrate=   1.9kbits/s speed=0.304x    frame=  124 fps= 14 q=29.0 size=       1kB time=00:00:02.53 bitrate=   1.9kbits/s speed=0.28x    frame=  127 fps= 13 q=29.0 size=       1kB time=00:00:02.63 bitrate=   1.8kbits/s speed=0.268x    frame=  129 fps= 12 q=29.0 size=       1kB time=00:00:02.70 bitrate=   1.8kbits/s speed=0.253x    frame=  131 fps= 12 q=29.0 size=       1kB time=00:00:02.77 bitrate=   1.7kbits/s speed=0.246x    frame=  134 fps= 11 q=29.0 size=       1kB time=00:00:02.87 bitrate=   1.7kbits/s speed=0.244x    frame=  136 fps= 11 q=29.0 size=       1kB time=00:00:02.97 bitrate=   1.6kbits/s speed=0.237x    frame=  139 fps= 11 q=29.0 size=       1kB time=00:00:03.07 bitrate=   1.6kbits/s speed=0.234x    frame=  142 fps= 10 q=29.0 size=       1kB time=00:00:03.17 bitrate=   1.5kbits/s speed=0.231x    frame=  145 fps= 10 q=29.0 size=       1kB time=00:00:03.27 bitrate=   1.5kbits/s speed=0.229x    frame=  148 fps= 10 q=25.0 size=       1kB time=00:00:03.37 bitrate=   1.4kbits/s speed=0.228x    frame=  152 fps=9.8 q=22.0 size=       1kB time=00:00:03.50 bitrate=   1.4kbits/s speed=0.225x    frame=  154 fps=9.4 q=22.0 size=       1kB time=00:00:03.57 bitrate=   1.3kbits/s speed=0.218x    frame=  157 fps=8.2 q=22.0 size=     188kB time=00:00:03.67 bitrate= 418.7kbits/s speed=0.191x    frame=  159 fps=7.9 q=23.0 size=     188kB time=00:00:04.17 bitrate= 368.4kbits/s speed=0.206x    frame=  162 fps=7.7 q=22.0 size=     188kB time=00:00:04.77 bitrate= 322.1kbits/s speed=0.228x    frame=  163 fps=7.6 q=22.0 size=     188kB time=00:00:05.03 bitrate= 305.1kbits/s speed=0.234x    frame=  166 fps=7.5 q=21.0 size=     188kB time=00:00:05.47 bitrate= 280.9kbits/s speed=0.247x    frame=  167 fps=7.3 q=20.0 size=     188kB time=00:00:05.67 bitrate= 271.0kbits/s speed=0.249x    frame=  169 fps=7.1 q=20.0 size=     188kB time=00:00:06.17 bitrate= 249.0kbits/s speed=0.259x    frame=  172 fps=7.1 q=21.0 size=     188kB time=00:00:07.64 bitrate= 201.1kbits/s speed=0.314x    frame=  175 fps=7.0 q=21.0 size=    1024kB time=00:00:08.64 bitrate= 970.6kbits/s speed=0.345x    frame=  177 fps=6.9 q=22.0 size=    1024kB time=00:00:09.27 bitrate= 904.2kbits/s speed=0.362x    frame=  181 fps=6.9 q=23.0 size=    1024kB time=00:00:10.71 bitrate= 783.1kbits/s speed=0.409x    frame=  183 fps=6.7 q=22.0 size=    1024kB time=00:00:11.31 bitrate= 741.6kbits/s speed=0.417x    frame=  185 fps=6.6 q=23.0 size=    1024kB time=00:00:11.64 bitrate= 720.3kbits/s speed=0.414x    frame=  186 fps=6.2 q=24.0 size=    1024kB time=00:00:11.81 bitrate= 710.1kbits/s speed=0.393x    frame=  188 fps=6.0 q=24.0 size=    1024kB time=00:00:12.54 bitrate= 668.6kbits/s speed= 0.4x    frame=  190 fps=6.0 q=25.0 size=    1024kB time=00:00:13.04 bitrate= 643.0kbits/s speed=0.409x    frame=  193 fps=6.0 q=25.0 size=    1024kB time=00:00:13.44 bitrate= 623.8kbits/s speed=0.415x    frame=  196 fps=5.9 q=24.0 size=    1536kB time=00:00:14.14 bitrate= 889.4kbits/s speed=0.427x    frame=  197 fps=5.7 q=23.0 size=    1536kB time=00:00:14.28 bitrate= 881.0kbits/s speed=0.41x    frame=  198 fps=5.6 q=17.0 size=    1536kB time=00:00:14.51 bitrate= 866.8kbits/s speed=0.407x    frame=  202 fps=5.6 q=21.0 size=    1536kB time=00:00:15.11 bitrate= 832.4kbits/s speed=0.416x    frame=  205 fps=5.6 q=22.0 size=    1536kB time=00:00:15.85 bitrate= 793.9kbits/s speed=0.43x    frame=  207 fps=5.4 q=24.0 size=    1536kB time=00:00:16.68 bitrate= 754.2kbits/s speed=0.433x    frame=  209 fps=4.5 q=19.0 size=    1536kB time=00:00:19.25 bitrate= 653.5kbits/s speed=0.415x    frame=  212 fps=4.5 q=23.0 size=    1536kB time=00:00:20.42 bitrate= 616.2kbits/s speed=0.432x    frame=  214 fps=4.4 q=20.0 size=    1536kB time=00:00:20.95 bitrate= 600.5kbits/s speed=0.434x    frame=  215 fps=3.6 q=22.0 size=    1536kB time=00:00:21.55 bitrate= 583.7kbits/s speed=0.362x    frame=  216 fps=3.6 q=22.0 size=    1536kB time=00:00:21.78 bitrate= 577.5kbits/s speed=0.359x    frame=  217 fps=3.3 q=22.0 size=    1536kB time=00:00:21.95 bitrate= 573.1kbits/s speed=0.335x    frame=  220 fps=3.2 q=21.0 size=    1536kB time=00:00:23.22 bitrate= 541.8kbits/s speed=0.337x    frame=  221 fps=3.2 q=23.0 size=    1536kB time=00:00:23.89 bitrate= 526.7kbits/s speed=0.343x    frame=  222 fps=2.9 q=22.0 size=    1536kB time=00:00:24.05 bitrate= 523.0kbits/s speed=0.311x    frame=  223 fps=2.9 q=23.0 size=    1536kB time=00:00:24.25 bitrate= 518.7kbits/s speed=0.31x    frame=  224 fps=2.8 q=23.0 size=    1536kB time=00:00:24.39 bitrate= 515.9kbits/s speed=0.309x    frame=  225 fps=2.8 q=25.0 size=    1536kB time=00:00:24.65 bitrate= 510.3kbits/s speed=0.31x    frame=  226 fps=2.8 q=20.0 size=    3328kB time=00:00:24.79 bitrate=1099.7kbits/s speed=0.308x    frame=  227 fps=2.8 q=20.0 size=    3328kB time=00:00:25.05 bitrate=1088.0kbits/s speed=0.305x    frame=  228 fps=2.7 q=19.0 size=    3328kB time=00:00:25.36 bitrate=1075.0kbits/s speed=0.303x    frame=  229 fps=2.7 q=25.0 size=    3328kB time=00:00:25.66 bitrate=1062.5kbits/s speed= 0.3x    frame=  233 fps=2.4 q=24.0 size=    4096kB time=00:00:26.22 bitrate=1279.4kbits/s speed=0.274x    frame=  236 fps=2.4 q=24.0 size=    4096kB time=00:00:27.46 bitrate=1221.8kbits/s speed=0.285x    frame=  238 fps=2.5 q=24.0 size=    4096kB time=00:00:30.06 bitrate=1116.1kbits/s speed=0.31x    frame=  239 fps=2.5 q=18.0 size=    4096kB time=00:00:30.16 bitrate=1112.4kbits/s speed=0.31x    frame=  240 fps=2.3 q=22.0 size=    5632kB time=00:00:31.39 bitrate=1469.4kbits/s speed=0.303x    frame=  241 fps=2.2 q=23.0 size=    5632kB time=00:00:31.66 bitrate=1457.0kbits/s speed=0.286x    frame=  242 fps=2.2 q=20.0 size=    5632kB time=00:00:31.90 bitrate=1446.3kbits/s speed=0.284x    frame=  243 fps=2.1 q=21.0 size=    5632kB time=00:00:32.10 bitrate=1437.3kbits/s speed=0.277x    frame=  246 fps=2.1 q=21.0 size=    5632kB time=00:00:32.53 bitrate=1418.1kbits/s speed=0.28x    frame=  247 fps=2.0 q=21.0 size=    5632kB time=00:00:32.66 bitrate=1412.4kbits/s speed=0.271x    frame=  248 fps=1.9 q=21.0 size=    5632kB time=00:00:33.13 bitrate=1392.4kbits/s speed=0.255x    frame=  249 fps=1.8 q=21.0 size=    5632kB time=00:00:34.86 bitrate=1323.2kbits/s speed=0.255x    frame=  250 fps=1.8 q=21.0 size=    5632kB time=00:00:35.70 bitrate=1292.3kbits/s speed=0.258x    frame=  251 fps=1.8 q=24.0 size=    5632kB time=00:00:35.83 bitrate=1287.4kbits/s speed=0.253x    frame=  253 fps=1.8 q=22.0 size=    5632kB time=00:00:36.03 bitrate=1280.3kbits/s speed=0.254x    frame=  254 fps=1.7 q=23.0 size=    5632kB time=00:00:36.33 bitrate=1269.7kbits/s speed=0.249x    frame=  255 fps=1.6 q=18.0 size=    5632kB time=00:00:36.60 bitrate=1260.4kbits/s speed=0.234x    frame=  256 fps=1.6 q=21.0 size=    8192kB time=00:00:36.77 bitrate=1825.0kbits/s speed=0.232x    frame=  257 fps=1.5 q=23.0 size=    8192kB time=00:00:36.87 bitrate=1820.1kbits/s speed=0.22x    frame=  258 fps=1.5 q=19.0 size=    8192kB time=00:00:37.23 bitrate=1802.2kbits/s speed=0.222x    frame=  259 fps=1.5 q=17.0 size=    8192kB time=00:00:38.57 bitrate=1739.8kbits/s speed=0.228x    frame=  260 fps=1.5 q=18.0 size=    8192kB time=00:00:38.77 bitrate=1730.8kbits/s speed=0.228x    frame=  262 fps=1.5 q=19.0 size=    8192kB time=00:00:46.54 bitrate=1441.7kbits/s speed=0.271x    frame=  263 fps=1.5 q=18.0 size=    8192kB time=00:00:46.84 bitrate=1432.5kbits/s speed=0.267x    frame=  265 fps=1.5 q=18.0 size=    9216kB time=00:00:47.48 bitrate=1590.0kbits/s speed=0.263x    frame=  266 fps=1.4 q=19.0 size=    9216kB time=00:00:48.31 bitrate=1562.6kbits/s speed=0.258x    frame=  269 fps=1.4 q=19.0 size=   10240kB time=00:01:05.46 bitrate=1281.4kbits/s speed=0.346x    frame=  270 fps=1.4 q=17.0 size=   10240kB time=00:01:05.63 bitrate=1278.1kbits/s speed=0.344x    frame=  272 fps=1.3 q=17.0 size=   11008kB time=00:01:08.97 bitrate=1307.5kbits/s speed=0.323x    frame=  274 fps=1.3 q=20.0 size=   11008kB time=00:01:17.24 bitrate=1167.4kbits/s speed=0.361x    frame=  277 fps=1.3 q=22.0 size=   11008kB time=00:01:19.61 bitrate=1132.7kbits/s speed=0.369x    frame=  278 fps=1.2 q=23.0 size=   13056kB time=00:01:20.58 bitrate=1327.3kbits/s speed=0.343x    frame=  279 fps=1.2 q=23.0 size=   13056kB time=00:01:22.15 bitrate=1301.9kbits/s speed=0.342x    frame=  280 fps=1.2 q=23.0 size=   13056kB time=00:01:23.78 bitrate=1276.5kbits/s speed=0.347x    frame=  281 fps=1.2 q=17.0 size=   13056kB time=00:01:25.48 bitrate=1251.1kbits/s speed=0.352x    frame=  282 fps=1.2 q=20.0 size=   13824kB time=00:01:25.72 bitrate=1321.1kbits/s speed=0.351x    frame=  284 fps=1.1 q=19.0 size=   13824kB time=00:01:25.98 bitrate=1317.0kbits/s speed=0.34x    frame=  287 fps=1.1 q=25.0 size=   13824kB time=00:01:36.19 bitrate=1177.2kbits/s speed=0.38x    frame=  290 fps=1.1 q=17.0 size=   15104kB time=00:01:36.93 bitrate=1276.5kbits/s speed=0.362x    frame=  292 fps=1.1 q=20.0 size=   15616kB time=00:01:43.70 bitrate=1233.6kbits/s speed=0.386x    frame=  296 fps=1.0 q=18.0 size=   15616kB time=00:01:56.11 bitrate=1101.7kbits/s speed=0.404x    frame=  299 fps=1.0 q=18.0 size=   16896kB time=00:02:00.72 bitrate=1146.5kbits/s speed=0.417x    frame=  300 fps=1.0 q=18.0 size=   16896kB time=00:02:09.86 bitrate=1065.8kbits/s speed=0.447x    frame=  302 fps=1.0 q=18.0 size=   16896kB time=00:02:18.27 bitrate=1001.0kbits/s speed=0.449x    frame=  305 fps=1.0 q=18.0 size=   18432kB time=00:02:22.11 bitrate=1062.5kbits/s speed=0.461x    frame=  307 fps=1.0 q=17.0 size=   18432kB time=00:02:36.19 bitrate= 966.7kbits/s speed=0.505x    frame=  308 fps=1.0 q=25.0 size=   18432kB time=00:02:38.52 bitrate= 952.5kbits/s speed=0.49x    frame=  312 fps=1.0 q=23.0 size=   18432kB time=00:02:50.10 bitrate= 887.7kbits/s speed=0.525x    frame=  314 fps=0.9 q=25.0 size=   20992kB time=00:02:51.80 bitrate=1000.9kbits/s speed=0.512x    frame=  315 fps=0.9 q=24.0 size=   20992kB time=00:02:55.20 bitrate= 981.5kbits/s speed=0.52x    frame=  316 fps=0.9 q=17.0 size=   20992kB time=00:02:55.47 bitrate= 980.0kbits/s speed=0.519x    frame=  318 fps=0.9 q=23.0 size=   20992kB time=00:03:07.45 bitrate= 917.4kbits/s speed=0.551x    frame=  319 fps=0.9 q=23.0 size=   20992kB time=00:03:07.55 bitrate= 916.9kbits/s speed=0.546x    frame=  320 fps=0.9 q=23.0 size=   20992kB time=00:03:07.68 bitrate= 916.2kbits/s speed=0.542x    frame=  321 fps=0.9 q=17.0 size=   20992kB time=00:03:09.29 bitrate= 908.5kbits/s speed=0.541x    frame=  324 fps=0.9 q=17.0 size=   22784kB time=00:03:33.38 bitrate= 874.7kbits/s speed=0.609x    frame=  325 fps=0.9 q=17.0 size=   22784kB time=00:03:33.51 bitrate= 874.2kbits/s speed=0.606x    frame=  327 fps=0.9 q=25.0 size=   22784kB time=00:03:34.28 bitrate= 871.0kbits/s speed=0.607x    frame=  333 fps=0.9 q=25.0 size=   26112kB time=00:04:02.91 bitrate= 880.6kbits/s speed=0.687x    frame=  340 fps=1.0 q=20.0 size=   27136kB time=00:04:13.45 bitrate= 877.1kbits/s speed=0.714x    frame=  347 fps=1.0 q=18.0 size=   28160kB time=00:04:28.77 bitrate= 858.3kbits/s speed=0.756x    frame=  348 fps=1.0 q=23.0 size=   28160kB time=00:04:47.72 bitrate= 801.8kbits/s speed=0.807x    frame=  351 fps=1.0 q=23.0 size=   28160kB time=00:04:49.69 bitrate= 796.3kbits/s speed=0.811x    frame=  354 fps=1.0 q=23.0 size=   30208kB time=00:05:07.80 bitrate= 804.0kbits/s speed=0.86x    frame=  355 fps=1.0 q=23.0 size=   30208kB time=00:05:07.90 bitrate= 803.7kbits/s speed=0.858x    frame=  359 fps=1.0 q=19.0 size=   31232kB time=00:05:09.04 bitrate= 827.9kbits/s speed=0.86x    frame=  362 fps=1.0 q=17.0 size=   31744kB time=00:05:23.59 bitrate= 803.6kbits/s speed=0.891x    frame=  365 fps=1.0 q=19.0 size=   31744kB time=00:05:24.02 bitrate= 802.6kbits/s speed=0.891x    frame=  369 fps=1.0 q=17.0 size=   32512kB time=00:05:38.57 bitrate= 786.6kbits/s speed=0.921x    frame=  370 fps=1.0 q=18.0 size=   32512kB time=00:05:40.37 bitrate= 782.5kbits/s speed=0.921x    frame=  374 fps=1.0 q=29.0 size=   32512kB time=00:05:49.85 bitrate= 761.3kbits/s speed=0.946x    frame=  378 fps=1.0 q=19.0 size=   32512kB time=00:05:52.28 bitrate= 756.0kbits/s speed=0.951x    frame=  382 fps=1.0 q=29.0 size=   32512kB time=00:05:53.05 bitrate= 754.4kbits/s speed=0.951x    frame=  384 fps=1.0 q=29.0 size=   33792kB time=00:05:53.12 bitrate= 783.9kbits/s speed=0.95x    frame=  388 fps=1.0 q=28.0 size=   33792kB time=00:05:54.18 bitrate= 781.6kbits/s speed=0.951x    frame=  392 fps=1.1 q=22.0 size=   33792kB time=00:05:54.75 bitrate= 780.3kbits/s speed=0.951x    frame=  398 fps=1.1 q=27.0 size=   33792kB time=00:05:55.15 bitrate= 779.4kbits/s speed=0.947x    frame=  404 fps=1.1 q=22.0 size=   34304kB time=00:05:57.22 bitrate= 786.7kbits/s speed=0.951x    frame=  407 fps=1.1 q=21.0 size=   34304kB time=00:05:59.02 bitrate= 782.7kbits/s speed=0.953x    frame=  409 fps=1.1 q=24.0 size=   34304kB time=00:05:59.16 bitrate= 782.4kbits/s speed=0.952x    frame=  413 fps=1.1 q=27.0 size=   34304kB time=00:06:00.02 bitrate= 780.5kbits/s speed=0.952x    frame=  417 fps=1.1 q=24.0 size=   34304kB time=00:06:03.83 bitrate= 772.4kbits/s speed=0.961x    frame=  422 fps=1.1 q=24.0 size=   34560kB time=00:06:09.53 bitrate= 766.1kbits/s speed=0.975x    frame=  426 fps=1.1 q=22.0 size=   34560kB time=00:06:10.03 bitrate= 765.1kbits/s speed=0.975x    frame=  428 fps=1.1 q=21.0 size=   34560kB time=00:06:10.30 bitrate= 764.5kbits/s speed=0.974x    frame=  431 fps=1.1 q=20.0 size=   34560kB time=00:06:10.67 bitrate= 763.8kbits/s speed=0.971x    frame=  436 fps=1.1 q=24.0 size=   34560kB time=00:06:11.73 bitrate= 761.6kbits/s speed=0.972x    frame=  441 fps=1.2 q=27.0 size=   34560kB time=00:06:12.50 bitrate= 760.0kbits/s speed=0.972x    frame=  444 fps=1.2 q=27.0 size=   34560kB time=00:06:12.90 bitrate= 759.2kbits/s speed=0.972x    frame=  449 fps=1.2 q=21.0 size=   34560kB time=00:06:13.34 bitrate= 758.3kbits/s speed=0.971x    frame=  453 fps=1.2 q=23.0 size=   34560kB time=00:06:15.24 bitrate= 754.5kbits/s speed=0.975x    frame=  455 fps=1.2 q=22.0 size=   34560kB time=00:06:15.40 bitrate= 754.2kbits/s speed=0.974x    frame=  456 fps=1.2 q=23.0 size=   34560kB time=00:06:15.54 bitrate= 753.9kbits/s speed=0.973x    frame=  460 fps=1.2 q=26.0 size=   34560kB time=00:06:17.07 bitrate= 750.8kbits/s speed=0.975x    frame=  464 fps=1.2 q=27.0 size=   34560kB time=00:06:17.71 bitrate= 749.6kbits/s speed=0.975x    frame=  466 fps=1.2 q=25.0 size=   34560kB time=00:06:18.11 bitrate= 748.8kbits/s speed=0.975x    frame=  470 fps=1.2 q=23.0 size=   34560kB time=00:06:18.57 bitrate= 747.8kbits/s speed=0.975x    frame=  472 fps=1.2 q=22.0 size=   34560kB time=00:06:18.71 bitrate= 747.6kbits/s speed=0.974x    frame=  477 fps=1.2 q=25.0 size=   34560kB time=00:06:19.54 bitrate= 745.9kbits/s speed=0.974x    frame=  480 fps=1.2 q=25.0 size=   34560kB time=00:06:20.21 bitrate= 744.6kbits/s speed=0.974x    frame=  483 fps=1.2 q=25.0 size=   34560kB time=00:06:21.74 bitrate= 741.6kbits/s speed=0.977x    frame=  487 fps=1.2 q=26.0 size=   34560kB time=00:06:22.21 bitrate= 740.7kbits/s speed=0.977x    frame=  490 fps=1.3 q=25.0 size=   34560kB time=00:06:22.55 bitrate= 740.1kbits/s speed=0.976x    frame=  492 fps=1.3 q=24.0 size=   34560kB time=00:06:22.75 bitrate= 739.7kbits/s speed=0.975x    frame=  496 fps=1.3 q=23.0 size=   34560kB time=00:06:23.61 bitrate= 738.0kbits/s speed=0.976x    frame=  498 fps=1.3 q=21.0 size=   34560kB time=00:06:23.78 bitrate= 737.7kbits/s speed=0.974x    frame=  502 fps=1.3 q=22.0 size=   34560kB time=00:06:24.41 bitrate= 736.5kbits/s speed=0.974x    frame=  504 fps=1.3 q=24.0 size=   34560kB time=00:06:24.75 bitrate= 735.8kbits/s speed=0.973x    frame=  508 fps=1.3 q=23.0 size=   34560kB time=00:06:26.08 bitrate= 733.3kbits/s speed=0.976x    frame=  512 fps=1.3 q=23.0 size=   34560kB time=00:06:26.58 bitrate= 732.3kbits/s speed=0.975x    frame=  517 fps=1.3 q=29.0 size=   34560kB time=00:06:27.62 bitrate= 730.4kbits/s speed=0.977x    frame=  520 fps=1.3 q=27.0 size=   34560kB time=00:06:28.18 bitrate= 729.3kbits/s speed=0.977x    frame=  525 fps=1.3 q=24.0 size=   34560kB time=00:06:29.19 bitrate= 727.4kbits/s speed=0.978x    frame=  528 fps=1.3 q=24.0 size=   34560kB time=00:06:29.49 bitrate= 726.9kbits/s speed=0.976x    frame=  532 fps=1.3 q=22.0 size=   34560kB time=00:06:30.22 bitrate= 725.5kbits/s speed=0.976x    frame=  538 fps=1.3 q=22.0 size=   34560kB time=00:06:31.09 bitrate= 723.9kbits/s speed=0.977x    frame=  544 fps=1.4 q=25.0 size=   34816kB time=00:06:32.42 bitrate= 726.8kbits/s speed=0.978x    frame=  550 fps=1.4 q=22.0 size=   34816kB time=00:06:34.09 bitrate= 723.7kbits/s speed=0.981x    frame=  554 fps=1.4 q=25.0 size=   34816kB time=00:06:34.59 bitrate= 722.8kbits/s speed=0.981x    frame=  559 fps=1.4 q=26.0 size=   34816kB time=00:06:35.69 bitrate= 720.8kbits/s speed=0.982x    frame=  564 fps=1.4 q=24.0 size=   34816kB time=00:06:36.33 bitrate= 719.6kbits/s speed=0.983x    frame=  568 fps=1.4 q=24.0 size=   34816kB time=00:06:36.83 bitrate= 718.7kbits/s speed=0.981x    frame=  572 fps=1.4 q=19.0 size=   34816kB time=00:06:37.46 bitrate= 717.6kbits/s speed=0.981x    frame=  576 fps=1.4 q=23.0 size=   34816kB time=00:06:37.86 bitrate= 716.9kbits/s speed=0.98x    frame=  581 fps=1.4 q=29.0 size=   34816kB time=00:06:39.36 bitrate= 714.2kbits/s speed=0.982x    frame=  585 fps=1.4 q=20.0 size=   34816kB time=00:06:39.83 bitrate= 713.3kbits/s speed=0.982x    frame=  589 fps=1.4 q=25.0 size=   34816kB time=00:06:40.16 bitrate= 712.7kbits/s speed=0.981x    frame=  594 fps=1.5 q=26.0 size=   34816kB time=00:06:40.50 bitrate= 712.1kbits/s speed=0.981x    frame=  597 fps=1.5 q=25.0 size=   34816kB time=00:06:41.20 bitrate= 710.9kbits/s speed=0.981x    frame=  600 fps=1.5 q=26.0 size=   34816kB time=00:06:41.53 bitrate= 710.3kbits/s speed=0.98x    frame=  605 fps=1.5 q=25.0 size=   34816kB time=00:06:42.03 bitrate= 709.4kbits/s speed=0.98x    frame=  609 fps=1.5 q=18.0 size=   34816kB time=00:06:42.60 bitrate= 708.4kbits/s speed=0.98x    frame=  612 fps=1.5 q=20.0 size=   34816kB time=00:06:42.93 bitrate= 707.8kbits/s speed=0.979x    frame=  616 fps=1.5 q=22.0 size=   34816kB time=00:06:43.40 bitrate= 707.0kbits/s speed=0.979x    frame=  618 fps=1.5 q=22.0 size=   34816kB time=00:06:43.73 bitrate= 706.4kbits/s speed=0.977x    frame=  622 fps=1.5 q=23.0 size=   34816kB time=00:06:44.90 bitrate= 704.4kbits/s speed=0.978x    frame=  630 fps=1.5 q=24.0 size=   34816kB time=00:06:46.30 bitrate= 702.0kbits/s speed=0.98x    frame=  633 fps=1.5 q=25.0 size=   35072kB time=00:06:46.70 bitrate= 706.4kbits/s speed=0.98x    frame=  634 fps=1.5 q=25.0 size=   35072kB time=00:06:46.84 bitrate= 706.2kbits/s speed=0.979x    frame=  638 fps=1.5 q=24.0 size=   35072kB time=00:06:47.44 bitrate= 705.2kbits/s speed=0.979x    frame=  642 fps=1.5 q=24.0 size=   35072kB time=00:06:47.97 bitrate= 704.2kbits/s speed=0.979x    frame=  646 fps=1.5 q=25.0 size=   35072kB time=00:06:48.47 bitrate= 703.4kbits/s speed=0.979x    frame=  650 fps=1.6 q=24.0 size=   35072kB time=00:06:49.34 bitrate= 701.9kbits/s speed=0.979x    frame=  654 fps=1.6 q=24.0 size=   35072kB time=00:06:49.87 bitrate= 701.0kbits/s speed=0.979x    frame=  659 fps=1.6 q=25.0 size=   35072kB time=00:06:50.54 bitrate= 699.8kbits/s speed=0.979x    frame=  663 fps=1.6 q=24.0 size=   35072kB time=00:06:51.34 bitrate= 698.5kbits/s speed=0.98x    frame=  667 fps=1.6 q=26.0 size=   35328kB time=00:06:51.91 bitrate= 702.6kbits/s speed=0.98x    frame=  671 fps=1.6 q=27.0 size=   35328kB time=00:06:53.51 bitrate= 699.9kbits/s speed=0.982x    frame=  675 fps=1.6 q=26.0 size=   35328kB time=00:06:53.94 bitrate= 699.1kbits/s speed=0.982x    frame=  679 fps=1.6 q=24.0 size=   35328kB time=00:06:54.14 bitrate= 698.8kbits/s speed=0.981x    frame=  683 fps=1.6 q=24.0 size=   35328kB time=00:06:54.71 bitrate= 697.8kbits/s speed=0.981x    frame=  687 fps=1.6 q=23.0 size=   35328kB time=00:06:55.91 bitrate= 695.8kbits/s speed=0.983x    frame=  692 fps=1.6 q=24.0 size=   35328kB time=00:06:56.65 bitrate= 694.6kbits/s speed=0.983x    frame=  696 fps=1.6 q=24.0 size=   35328kB time=00:06:57.18 bitrate= 693.7kbits/s speed=0.983x    frame=  700 fps=1.6 q=24.0 size=   35328kB time=00:06:57.75 bitrate= 692.8kbits/s speed=0.983x    frame=  703 fps=1.7 q=24.0 size=   35328kB time=00:06:58.21 bitrate= 692.0kbits/s speed=0.983x    frame=  707 fps=1.7 q=24.0 size=   35328kB time=00:06:58.85 bitrate= 691.0kbits/s speed=0.983x    frame=  711 fps=1.7 q=24.0 size=   35328kB time=00:06:59.22 bitrate= 690.3kbits/s speed=0.982x    frame=  715 fps=1.7 q=24.0 size=   35328kB time=00:06:59.85 bitrate= 689.3kbits/s speed=0.982x    frame=  720 fps=1.7 q=24.0 size=   35328kB time=00:07:00.58 bitrate= 688.1kbits/s speed=0.983x    frame=  724 fps=1.7 q=23.0 size=   35328kB time=00:07:01.12 bitrate= 687.2kbits/s speed=0.983x    frame=  730 fps=1.7 q=25.0 size=   35328kB time=00:07:01.95 bitrate= 685.9kbits/s speed=0.983x    frame=  735 fps=1.7 q=26.0 size=   35328kB time=00:07:02.62 bitrate= 684.8kbits/s speed=0.983x    frame=  738 fps=1.7 q=24.0 size=   35328kB time=00:07:03.09 bitrate= 684.0kbits/s speed=0.983x    frame=  742 fps=1.7 q=24.0 size=   35584kB time=00:07:03.45 bitrate= 688.4kbits/s speed=0.983x    frame=  747 fps=1.7 q=23.0 size=   35584kB time=00:07:04.25 bitrate= 687.1kbits/s speed=0.983x    frame=  751 fps=1.7 q=23.0 size=   35584kB time=00:07:04.82 bitrate= 686.2kbits/s speed=0.983x    frame=  754 fps=1.7 q=23.0 size=   35584kB time=00:07:05.45 bitrate= 685.2kbits/s speed=0.983x    frame=  756 fps=1.7 q=23.0 size=   35584kB time=00:07:05.76 bitrate= 684.7kbits/s speed=0.983x    frame=  761 fps=1.8 q=25.0 size=   35584kB time=00:07:06.49 bitrate= 683.5kbits/s speed=0.983x    frame=  766 fps=1.8 q=27.0 size=   35584kB time=00:07:07.36 bitrate= 682.1kbits/s speed=0.984x    frame=  771 fps=1.8 q=28.0 size=   35584kB time=00:07:07.99 bitrate= 681.1kbits/s speed=0.984x    frame=  774 fps=1.8 q=26.0 size=   35584kB time=00:07:08.46 bitrate= 680.4kbits/s speed=0.983x    frame=  778 fps=1.8 q=24.0 size=   35584kB time=00:07:08.86 bitrate= 679.7kbits/s speed=0.983x    frame=  782 fps=1.8 q=23.0 size=   35584kB time=00:07:09.16 bitrate= 679.2kbits/s speed=0.982x    frame=  785 fps=1.8 q=24.0 size=   35584kB time=00:07:09.49 bitrate= 678.7kbits/s speed=0.982x    frame=  789 fps=1.8 q=27.0 size=   35584kB time=00:07:10.13 bitrate= 677.7kbits/s speed=0.982x    frame=  793 fps=1.8 q=21.0 size=   35584kB time=00:07:10.76 bitrate= 676.7kbits/s speed=0.982x    frame=  797 fps=1.8 q=19.0 size=   35584kB time=00:07:11.29 bitrate= 675.9kbits/s speed=0.982x    frame=  801 fps=1.8 q=23.0 size=   35584kB time=00:07:11.79 bitrate= 675.1kbits/s speed=0.982x    frame=  806 fps=1.8 q=24.0 size=   35584kB time=00:07:12.66 bitrate= 673.7kbits/s speed=0.983x    frame=  810 fps=1.8 q=24.0 size=   35584kB time=00:07:13.63 bitrate= 672.2kbits/s speed=0.984x    frame=  816 fps=1.8 q=24.0 size=   35584kB time=00:07:14.30 bitrate= 671.2kbits/s speed=0.984x    frame=  818 fps=1.9 q=24.0 size=   35584kB time=00:07:14.56 bitrate= 670.8kbits/s speed=0.983x    frame=  821 fps=1.9 q=24.0 size=   35584kB time=00:07:14.90 bitrate= 670.3kbits/s speed=0.983x    frame=  825 fps=1.9 q=23.0 size=   35584kB time=00:07:15.53 bitrate= 669.3kbits/s speed=0.983x    frame=  829 fps=1.9 q=24.0 size=   35584kB time=00:07:16.20 bitrate= 668.3kbits/s speed=0.983x    frame=  833 fps=1.9 q=24.0 size=   35584kB time=00:07:16.73 bitrate= 667.5kbits/s speed=0.983x    frame=  837 fps=1.9 q=24.0 size=   35584kB time=00:07:17.50 bitrate= 666.3kbits/s speed=0.983x    frame=  841 fps=1.9 q=24.0 size=   35584kB time=00:07:18.00 bitrate= 665.5kbits/s speed=0.983x    frame=  846 fps=1.9 q=25.0 size=   35584kB time=00:07:18.67 bitrate= 664.5kbits/s speed=0.983x    frame=  850 fps=1.9 q=25.0 size=   35584kB time=00:07:19.27 bitrate= 663.6kbits/s speed=0.983x    frame=  853 fps=1.9 q=25.0 size=   35584kB time=00:07:19.67 bitrate= 663.0kbits/s speed=0.983x    frame=  860 fps=1.9 q=23.0 size=   35584kB time=00:07:20.50 bitrate= 661.7kbits/s speed=0.983x    frame=  864 fps=1.9 q=22.0 size=   35584kB time=00:07:21.14 bitrate= 660.8kbits/s speed=0.983x    frame=  871 fps=1.9 q=26.0 size=   35584kB time=00:07:22.24 bitrate= 659.1kbits/s speed=0.985x    frame=  876 fps=1.9 q=28.0 size=   35584kB time=00:07:22.97 bitrate= 658.1kbits/s speed=0.985x    frame=  880 fps=2.0 q=23.0 size=   35584kB time=00:07:23.54 bitrate= 657.2kbits/s speed=0.985x    frame=  884 fps=2.0 q=24.0 size=   35840kB time=00:07:24.14 bitrate= 661.0kbits/s speed=0.985x    frame=  886 fps=1.9 q=-1.0 Lsize=   36284kB time=00:07:31.11 bitrate= 658.9kbits/s speed=0.988x    
video:36277kB audio:0kB subtitle:0kB other streams:0kB global headers:0kB muxing overhead: 0.021353%
[libx264 @ 0000020fe5532340] frame I:13    Avg QP:14.22  size:389687
[libx264 @ 0000020fe5532340] frame P:237   Avg QP:15.27  size: 67669
[libx264 @ 0000020fe5532340] frame B:636   Avg QP:23.50  size: 25225
[libx264 @ 0000020fe5532340] consecutive B-frames:  3.0%  2.3%  4.4% 90.3%
[libx264 @ 0000020fe5532340] mb I  I16..4: 10.0% 45.6% 44.4%
[libx264 @ 0000020fe5532340] mb P  I16..4:  0.6%  8.7%  5.7%  P16..4:  7.4%  3.6%  3.3%  0.0%  0.0%    skip:70.6%
[libx264 @ 0000020fe5532340] mb B  I16..4:  0.1%  2.2%  1.9%  B16..8:  5.3%  3.0%  2.2%  direct: 1.6%  skip:83.7%  L0:40.6% L1:46.8% BI:12.6%
[libx264 @ 0000020fe5532340] 8x8 transform intra:53.8% inter:61.6%
[libx264 @ 0000020fe5532340] coded y,uvDC,uvAC intra: 92.0% 93.0% 80.6% inter: 7.6% 6.5% 1.8%
[libx264 @ 0000020fe5532340] i16 v,h,dc,p: 31% 41%  6% 22%
[libx264 @ 0000020fe5532340] i8 v,h,dc,ddl,ddr,vr,hd,vl,hu: 10% 30% 12%  6%  7%  5% 12%  6% 14%
[libx264 @ 0000020fe5532340] i4 v,h,dc,ddl,ddr,vr,hd,vl,hu: 13% 26%  9%  7%  9%  6% 12%  7% 12%
[libx264 @ 0000020fe5532340] i8c dc,h,v,p: 45% 33% 13%  9%
[libx264 @ 0000020fe5532340] Weighted P-Frames: Y:0.0% UV:0.0%
[libx264 @ 0000020fe5532340] ref P L0: 57.8% 15.3% 15.3% 11.6%
[libx264 @ 0000020fe5532340] ref B L0: 86.8% 10.2%  3.0%
[libx264 @ 0000020fe5532340] ref B L1: 95.9%  4.1%
[libx264 @ 0000020fe5532340] kb/s:657.92
